<svg width="16" height="17" viewBox="0 0 16 17" fill="none" xmlns="http://www.w3.org/2000/svg">
<path d="M8 0.903198C10.1736 0.903198 10.4448 0.911198 11.2976 0.951198C12.1496 0.991198 12.7296 1.1248 13.24 1.3232C13.768 1.5264 14.2128 1.8016 14.6576 2.2456C15.0644 2.64551 15.3792 3.12927 15.58 3.6632C15.7776 4.1728 15.912 4.7536 15.952 5.6056C15.9896 6.4584 16 6.7296 16 8.9032C16 11.0768 15.992 11.348 15.952 12.2008C15.912 13.0528 15.7776 13.6328 15.58 14.1432C15.3797 14.6774 15.0649 15.1613 14.6576 15.5608C14.2576 15.9675 13.7738 16.2822 13.24 16.4832C12.7304 16.6808 12.1496 16.8152 11.2976 16.8552C10.4448 16.8928 10.1736 16.9032 8 16.9032C5.8264 16.9032 5.5552 16.8952 4.7024 16.8552C3.8504 16.8152 3.2704 16.6808 2.76 16.4832C2.22586 16.2828 1.74202 15.968 1.3424 15.5608C0.935525 15.1609 0.620745 14.6772 0.42 14.1432C0.2216 13.6336 0.088 13.0528 0.048 12.2008C0.0104 11.348 0 11.0768 0 8.9032C0 6.7296 0.00799995 6.4584 0.048 5.6056C0.088 4.7528 0.2216 4.1736 0.42 3.6632C0.620189 3.12894 0.935043 2.64506 1.3424 2.2456C1.74214 1.83858 2.22594 1.52378 2.76 1.3232C3.2704 1.1248 3.8496 0.991198 4.7024 0.951198C5.5552 0.913598 5.8264 0.903198 8 0.903198ZM8 4.9032C6.93913 4.9032 5.92172 5.32463 5.17157 6.07477C4.42143 6.82492 4 7.84233 4 8.9032C4 9.96406 4.42143 10.9815 5.17157 11.7316C5.92172 12.4818 6.93913 12.9032 8 12.9032C9.06087 12.9032 10.0783 12.4818 10.8284 11.7316C11.5786 10.9815 12 9.96406 12 8.9032C12 7.84233 11.5786 6.82492 10.8284 6.07477C10.0783 5.32463 9.06087 4.9032 8 4.9032ZM13.2 4.7032C13.2 4.43798 13.0946 4.18363 12.9071 3.99609C12.7196 3.80856 12.4652 3.7032 12.2 3.7032C11.9348 3.7032 11.6804 3.80856 11.4929 3.99609C11.3054 4.18363 11.2 4.43798 11.2 4.7032C11.2 4.96841 11.3054 5.22277 11.4929 5.41031C11.6804 5.59784 11.9348 5.7032 12.2 5.7032C12.4652 5.7032 12.7196 5.59784 12.9071 5.41031C13.0946 5.22277 13.2 4.96841 13.2 4.7032ZM8 6.5032C8.63652 6.5032 9.24697 6.75605 9.69706 7.20614C10.1471 7.65623 10.4 8.26668 10.4 8.9032C10.4 9.53972 10.1471 10.1502 9.69706 10.6003C9.24697 11.0503 8.63652 11.3032 8 11.3032C7.36348 11.3032 6.75303 11.0503 6.30294 10.6003C5.85286 10.1502 5.6 9.53972 5.6 8.9032C5.6 8.26668 5.85286 7.65623 6.30294 7.20614C6.75303 6.75605 7.36348 6.5032 8 6.5032Z" fill="white"/>
</svg>
