<svg width="16" height="17" viewBox="0 0 16 17" fill="none" xmlns="http://www.w3.org/2000/svg">
<path d="M15.9992 4.22632C15.4 4.49138 14.7645 4.66546 14.1138 4.7428C14.7996 4.33262 15.313 3.68708 15.5581 2.92647C14.9144 3.30952 14.2088 3.57796 13.4733 3.72318C12.9793 3.19459 12.3245 2.84403 11.6106 2.72599C10.8968 2.60795 10.164 2.72906 9.52611 3.07047C8.88822 3.41189 8.38099 3.95448 8.08329 4.61391C7.78559 5.27333 7.71409 6.01264 7.87991 6.7169C6.57465 6.65148 5.29775 6.31228 4.13209 5.72134C2.96644 5.1304 1.93809 4.30092 1.11381 3.28676C0.822049 3.78789 0.668725 4.35758 0.669545 4.93746C0.669545 6.07561 1.24882 7.0811 2.12951 7.6698C1.60833 7.65339 1.09861 7.51264 0.642857 7.25928V7.3001C0.643014 8.05811 0.905313 8.79273 1.38528 9.37942C1.86525 9.96611 2.53335 10.3688 3.27629 10.5191C2.79248 10.6502 2.28517 10.6695 1.79278 10.5756C2.00225 11.2281 2.41052 11.7987 2.96043 12.2076C3.51034 12.6164 4.17436 12.8431 4.8595 12.8558C4.17856 13.3906 3.39888 13.786 2.56506 14.0192C1.73123 14.2525 0.859598 14.3191 0 14.2153C1.50055 15.1803 3.24733 15.6927 5.0314 15.691C11.0699 15.691 14.3721 10.6886 14.3721 6.35034C14.3721 6.20905 14.3681 6.06619 14.3619 5.92647C15.0046 5.46193 15.5593 4.88646 16 4.2271L15.9992 4.22632Z" fill="white"/>
</svg>
