<svg width="16" height="17" viewBox="0 0 16 17" fill="none" xmlns="http://www.w3.org/2000/svg">
<path d="M15.6344 5.3732C16 6.6602 16 9.34687 16 9.34687C16 9.34687 16 12.0335 15.6344 13.3205C15.4312 14.0319 14.8368 14.5916 14.084 14.7809C12.7168 15.1246 8 15.1246 8 15.1246C8 15.1246 3.2856 15.1246 1.916 14.7809C1.16 14.5888 0.5664 14.0298 0.3656 13.3205C2.38419e-08 12.0335 0 9.34687 0 9.34687C0 9.34687 2.38419e-08 6.6602 0.3656 5.3732C0.5688 4.66181 1.1632 4.10209 1.916 3.91287C3.2856 3.56909 8 3.56909 8 3.56909C8 3.56909 12.7168 3.56909 14.084 3.91287C14.84 4.10498 15.4336 4.66398 15.6344 5.3732ZM6.4 11.8746L11.2 9.34687L6.4 6.81909V11.8746Z" fill="white"/>
</svg>
